<svg id="visual" viewBox="0 0 900 600" width="900" height="600" xmlns="http://www.w3.org/2000/svg" xmlns:xlink="http://www.w3.org/1999/xlink" version="1.1"><rect x="0" y="0" width="900" height="600" fill="#333"></rect><defs><linearGradient id="grad1_0" x1="33.3%" y1="100%" x2="100%" y2="0%"><stop offset="20%" stop-color="#333333" stop-opacity="1"></stop><stop offset="80%" stop-color="#333333" stop-opacity="1"></stop></linearGradient></defs><defs><linearGradient id="grad2_0" x1="0%" y1="100%" x2="66.7%" y2="0%"><stop offset="20%" stop-color="#333333" stop-opacity="1"></stop><stop offset="80%" stop-color="#333333" stop-opacity="1"></stop></linearGradient></defs><g transform="translate(900, 600)"><path d="M-243.4 0C-238.2 -44.6 -232.9 -89.1 -210.8 -121.7C-188.6 -154.3 -149.5 -174.8 -111.5 -193.1C-73.5 -211.4 -36.8 -227.4 0 -243.4L0 0Z" fill="#fff"></path></g><g transform="translate(0, 0)"><path d="M243.4 0C238.6 45.3 233.7 90.5 210.8 121.7C187.8 152.9 146.7 170 108.5 187.9C70.3 205.9 35.2 224.6 0 243.4L0 0Z" fill="#fff"></path></g></svg>