<svg id="visual" viewBox="0 0 900 600" width="900" height="600" xmlns="http://www.w3.org/2000/svg" xmlns:xlink="http://www.w3.org/1999/xlink" version="1.1"><g fill="none" stroke="#48806d" stroke-width="4"><path d="M24 13.9L24 61.9L-24 61.9L-24 13.9L-65.6 -10.2L-41.6 -51.7L0 -27.7L41.6 -51.7L65.6 -10.2Z" transform="translate(141 109)"></path><path d="M22.7 13.1L22.7 58.4L-22.7 58.4L-22.7 13.1L-61.9 -9.6L-39.3 -48.8L0 -26.2L39.3 -48.8L61.9 -9.6Z" transform="translate(119 407)"></path><path d="M22.9 13.2L22.9 59.1L-22.9 59.1L-22.9 13.2L-62.7 -9.7L-39.7 -49.4L0 -26.5L39.7 -49.4L62.7 -9.7Z" transform="translate(268 253)"></path><path d="M23.2 13.4L23.2 59.8L-23.2 59.8L-23.2 13.4L-63.4 -9.8L-40.2 -50L0 -26.8L40.2 -50L63.4 -9.8Z" transform="translate(814 426)"></path><path d="M22.7 13.1L22.7 58.4L-22.7 58.4L-22.7 13.1L-61.9 -9.6L-39.3 -48.8L0 -26.2L39.3 -48.8L61.9 -9.6Z" transform="translate(611 226)"></path><path d="M22.9 13.2L22.9 59.1L-22.9 59.1L-22.9 13.2L-62.7 -9.7L-39.7 -49.4L0 -26.5L39.7 -49.4L62.7 -9.7Z" transform="translate(202 577)"></path><path d="M22.9 13.2L22.9 59.1L-22.9 59.1L-22.9 13.2L-62.7 -9.7L-39.7 -49.4L0 -26.5L39.7 -49.4L62.7 -9.7Z" transform="translate(558 495)"></path></g></svg>